<?xml version="1.0" encoding="UTF-8"?>
<svg width="16px" height="16px" viewBox="0 0 16 16" version="1.1" xmlns="http://www.w3.org/2000/svg" xmlns:xlink="http://www.w3.org/1999/xlink">
    <!-- Generator: Sketch 51.2 (57519) - http://www.bohemiancoding.com/sketch -->
    <title>icon_add@2x</title>
    <desc>Created with Sketch.</desc>
    <defs></defs>
    <g id="dApp" stroke="none" stroke-width="1" fill="none" fill-rule="evenodd">
        <g id="dApp-List-第一期上线" transform="translate(-1175.000000, -17.000000)" fill="#FFFFFF">
            <g id="Group-8" transform="translate(1110.000000, 13.000000)">
                <g id="icon_add" transform="translate(65.000000, 4.000000)">
                    <polygon id="+" points="7.415 12.068 7.415 8.558 4.139 8.558 4.139 7.442 7.415 7.442 7.415 3.932 8.585 3.932 8.585 7.442 11.861 7.442 11.861 8.558 8.585 8.558 8.585 12.068"></polygon>
                    <path d="M3,1 C1.8954305,1 1,1.8954305 1,3 L1,13 C1,14.1045695 1.8954305,15 3,15 L13,15 C14.1045695,15 15,14.1045695 15,13 L15,3 C15,1.8954305 14.1045695,1 13,1 L3,1 Z M3,0 L13,0 C14.6568542,0 16,1.34314575 16,3 L16,13 C16,14.6568542 14.6568542,16 13,16 L3,16 C1.34314575,16 0,14.6568542 0,13 L0,3 C0,1.34314575 1.34314575,0 3,0 Z" id="Rectangle-27" fill-rule="nonzero"></path>
                </g>
            </g>
        </g>
    </g>
</svg>