<?xml version="1.0" encoding="UTF-8"?>
<svg width="20px" height="20px" viewBox="0 0 20 20" version="1.1" xmlns="http://www.w3.org/2000/svg" xmlns:xlink="http://www.w3.org/1999/xlink">
    <!-- Generator: Sketch 46.2 (44496) - http://www.bohemiancoding.com/sketch -->
    <title>plus_white</title>
    <desc>Created with Sketch.</desc>
    <defs></defs>
    <g id="Symbols" stroke="none" stroke-width="1" fill="none" fill-rule="evenodd">
        <g id="plus_white" fill="#FFFFFF">
            <path d="M2,0 L18,0 C19.1045695,-2.02906125e-16 20,0.8954305 20,2 L20,18 C20,19.1045695 19.1045695,20 18,20 L2,20 C0.8954305,20 1.3527075e-16,19.1045695 0,18 L0,2 L0,2 C-1.3527075e-16,0.8954305 0.8954305,2.02906125e-16 2,0 L2,0 Z M2.10000002,1 C1.49248679,1 1,1.49248679 1,2.10000002 L1,17.9 C1,18.5075132 1.49248679,19 2.10000002,19 L17.9,19 C18.5075132,19 19,18.5075132 19,17.9 L19,2.10000002 C19,1.49248679 18.5075132,1 17.9,1 L2.10000002,1 Z" id="Combined-Shape"></path>
            <rect id="Rectangle" transform="translate(10.000000, 10.000000) rotate(-360.000000) translate(-10.000000, -10.000000) " x="4" y="9.5" width="12" height="1" rx="0.5"></rect>
            <rect id="Rectangle" transform="translate(10.000000, 10.000000) rotate(-90.000000) translate(-10.000000, -10.000000) " x="4" y="9.5" width="12" height="1" rx="0.5"></rect>
        </g>
    </g>
</svg>