<?xml version="1.0" encoding="UTF-8"?>
<svg width="15px" height="20px" viewBox="0 0 15 20" version="1.1" xmlns="http://www.w3.org/2000/svg" xmlns:xlink="http://www.w3.org/1999/xlink">
    <!-- Generator: Sketch 46.2 (44496) - http://www.bohemiancoding.com/sketch -->
    <title>records</title>
    <desc>Created with Sketch.</desc>
    <defs></defs>
    <g id="Symbols" stroke="none" stroke-width="1" fill="none" fill-rule="evenodd">
        <g id="records" fill-rule="nonzero" fill="#6B62CD">
            <path d="M14.9990184,4.04801572 C14.99769,3.92785923 14.9511957,3.81012463 14.8628566,3.72176508 L11.2775218,0.137148705 C11.2773655,0.136992455 11.2772483,0.136953392 11.277092,0.136836205 C11.1924255,0.0522657271 11.0754475,0 10.9463184,0 L0.986069626,0 C0.442320875,0 0,0.442188364 0,0.985822238 L0,19.0141778 C0,19.5577726 0.442281804,20 0.986030555,20 L14.0139646,20 C14.5576743,20 14.9999952,19.5578116 14.9999952,19.0141778 L14.9999952,4.05285948 C15.0000733,4.05114072 14.9991747,4.04969541 14.9990184,4.04801572 Z M11.4146995,1.59887031 L13.4008261,3.58457731 L11.4640069,3.58457731 C11.4368526,3.58457731 11.4146995,3.56242883 11.4146995,3.53528034 L11.4146995,1.59887031 Z M14.063272,19.0142168 C14.063272,19.0413653 14.0411579,19.0634747 14.0140037,19.0634747 L0.986069626,19.0634747 C0.958915399,19.0634747 0.936801309,19.0413653 0.936801309,19.0142168 L0.936801309,0.985822238 C0.936801309,0.958673747 0.958915399,0.936564329 0.986069626,0.936564329 L10.4779372,0.936564329 L10.4779372,3.53528034 C10.4779372,4.07887515 10.9202972,4.52118071 11.4640459,4.52118071 L14.0633111,4.52118071 L14.0633111,19.0142168 L14.063272,19.0142168 Z" id="Shape"></path>
            <path d="M11.5431609,6 L3.45687717,6 C3.20458097,6 3,6.22384885 3,6.5 C3,6.77610944 3.20458097,7 3.45687717,7 L11.5431228,7 C11.795419,7 12,6.77610944 12,6.5 C12.0000381,6.22384885 11.795419,6 11.5431609,6 Z" id="Shape"></path>
            <path d="M11.5431609,9 L3.45687717,9 C3.20458097,9 3,9.22389056 3,9.5 C3,9.77610944 3.20458097,10 3.45687717,10 L11.5431228,10 C11.795419,10 12,9.77610944 12,9.5 C12.0000381,9.22389056 11.795419,9 11.5431609,9 Z" id="Shape"></path>
            <path d="M11.5431609,12 L3.45687717,12 C3.20458097,12 3,12.2238906 3,12.5 C3,12.7761512 3.20458097,13 3.45687717,13 L11.5431228,13 C11.795419,13 12,12.7761512 12,12.5 C12.0000381,12.2239323 11.795419,12 11.5431609,12 Z" id="Shape"></path>
            <path d="M7.53914996,15 L3.46085004,15 C3.20635995,15 3,15.2238906 3,15.5 C3,15.7761512 3.20635995,16 3.46085004,16 L7.53914996,16 C7.79364005,16 8,15.7761512 8,15.5 C8,15.2238488 7.79364005,15 7.53914996,15 Z" id="Shape"></path>
        </g>
    </g>
</svg>